<svg width="98" height="24" viewBox="0 0 98 24" fill="none" xmlns="http://www.w3.org/2000/svg">
<path d="M13.82 18.6267H5.09L3.59 22.8867H0.0200001L7.49 2.00672H11.45L18.92 22.8867H15.32L13.82 18.6267ZM12.86 15.8367L9.47 6.14672L6.05 15.8367H12.86ZM21.028 14.5467C21.028 12.8867 21.368 11.4167 22.048 10.1367C22.748 8.85672 23.688 7.86672 24.868 7.16672C26.068 6.44672 27.398 6.08672 28.858 6.08672C29.938 6.08672 30.998 6.32672 32.038 6.80672C33.098 7.26672 33.938 7.88672 34.558 8.66672V0.686718H38.008V22.8867H34.558V20.3967C33.998 21.1967 33.218 21.8567 32.218 22.3767C31.238 22.8967 30.108 23.1567 28.828 23.1567C27.388 23.1567 26.068 22.7967 24.868 22.0767C23.688 21.3367 22.748 20.3167 22.048 19.0167C21.368 17.6967 21.028 16.2067 21.028 14.5467ZM34.558 14.6067C34.558 13.4667 34.318 12.4767 33.838 11.6367C33.378 10.7967 32.768 10.1567 32.008 9.71672C31.248 9.27672 30.428 9.05672 29.548 9.05672C28.668 9.05672 27.848 9.27672 27.088 9.71672C26.328 10.1367 25.708 10.7667 25.228 11.6067C24.768 12.4267 24.538 13.4067 24.538 14.5467C24.538 15.6867 24.768 16.6867 25.228 17.5467C25.708 18.4067 26.328 19.0667 27.088 19.5267C27.868 19.9667 28.688 20.1867 29.548 20.1867C30.428 20.1867 31.248 19.9667 32.008 19.5267C32.768 19.0867 33.378 18.4467 33.838 17.6067C34.318 16.7467 34.558 15.7467 34.558 14.6067ZM49.67 23.1567C48.11 23.1567 46.7 22.8067 45.44 22.1067C44.18 21.3867 43.19 20.3867 42.47 19.1067C41.75 17.8067 41.39 16.3067 41.39 14.6067C41.39 12.9267 41.76 11.4367 42.5 10.1367C43.24 8.83672 44.25 7.83672 45.53 7.13672C46.81 6.43672 48.24 6.08672 49.82 6.08672C51.4 6.08672 52.83 6.43672 54.11 7.13672C55.39 7.83672 56.4 8.83672 57.14 10.1367C57.88 11.4367 58.25 12.9267 58.25 14.6067C58.25 16.2867 57.87 17.7767 57.11 19.0767C56.35 20.3767 55.31 21.3867 53.99 22.1067C52.69 22.8067 51.25 23.1567 49.67 23.1567ZM49.67 20.1867C50.55 20.1867 51.37 19.9767 52.13 19.5567C52.91 19.1367 53.54 18.5067 54.02 17.6667C54.5 16.8267 54.74 15.8067 54.74 14.6067C54.74 13.4067 54.51 12.3967 54.05 11.5767C53.59 10.7367 52.98 10.1067 52.22 9.68672C51.46 9.26672 50.64 9.05672 49.76 9.05672C48.88 9.05672 48.06 9.26672 47.3 9.68672C46.56 10.1067 45.97 10.7367 45.53 11.5767C45.09 12.3967 44.87 13.4067 44.87 14.6067C44.87 16.3867 45.32 17.7667 46.22 18.7467C47.14 19.7067 48.29 20.1867 49.67 20.1867ZM65.0509 8.81672C65.6309 8.01672 66.4209 7.36672 67.4209 6.86672C68.4409 6.34672 69.5709 6.08672 70.8109 6.08672C72.2709 6.08672 73.5909 6.43672 74.7709 7.13672C75.9509 7.83672 76.8809 8.83672 77.5609 10.1367C78.2409 11.4167 78.5809 12.8867 78.5809 14.5467C78.5809 16.2067 78.2409 17.6967 77.5609 19.0167C76.8809 20.3167 75.9409 21.3367 74.7409 22.0767C73.5609 22.7967 72.2509 23.1567 70.8109 23.1567C69.5309 23.1567 68.3909 22.9067 67.3909 22.4067C66.4109 21.9067 65.6309 21.2667 65.0509 20.4867V22.8867H61.6309V0.686718H65.0509V8.81672ZM75.1009 14.5467C75.1009 13.4067 74.8609 12.4267 74.3809 11.6067C73.9209 10.7667 73.3009 10.1367 72.5209 9.71672C71.7609 9.27672 70.9409 9.05672 70.0609 9.05672C69.2009 9.05672 68.3809 9.27672 67.6009 9.71672C66.8409 10.1567 66.2209 10.7967 65.7409 11.6367C65.2809 12.4767 65.0509 13.4667 65.0509 14.6067C65.0509 15.7467 65.2809 16.7467 65.7409 17.6067C66.2209 18.4467 66.8409 19.0867 67.6009 19.5267C68.3809 19.9667 69.2009 20.1867 70.0609 20.1867C70.9409 20.1867 71.7609 19.9667 72.5209 19.5267C73.3009 19.0667 73.9209 18.4067 74.3809 17.5467C74.8609 16.6867 75.1009 15.6867 75.1009 14.5467ZM97.1129 14.2167C97.1129 14.8367 97.0729 15.3967 96.9929 15.8967H84.3629C84.4629 17.2167 84.9529 18.2767 85.8329 19.0767C86.7129 19.8767 87.7929 20.2767 89.0729 20.2767C90.9129 20.2767 92.2129 19.5067 92.9729 17.9667H96.6629C96.1629 19.4867 95.2529 20.7367 93.9329 21.7167C92.6329 22.6767 91.0129 23.1567 89.0729 23.1567C87.4929 23.1567 86.0729 22.8067 84.8129 22.1067C83.5729 21.3867 82.5929 20.3867 81.8729 19.1067C81.1729 17.8067 80.8229 16.3067 80.8229 14.6067C80.8229 12.9067 81.1629 11.4167 81.8429 10.1367C82.5429 8.83672 83.5129 7.83672 84.7529 7.13672C86.0129 6.43672 87.4529 6.08672 89.0729 6.08672C90.6329 6.08672 92.0229 6.42672 93.2429 7.10672C94.4629 7.78672 95.4129 8.74672 96.0929 9.98672C96.7729 11.2067 97.1129 12.6167 97.1129 14.2167ZM93.5429 13.1367C93.5229 11.8767 93.0729 10.8667 92.1929 10.1067C91.3129 9.34672 90.2229 8.96672 88.9229 8.96672C87.7429 8.96672 86.7329 9.34672 85.8929 10.1067C85.0529 10.8467 84.5529 11.8567 84.3929 13.1367H93.5429Z" fill="black"/>
</svg>
