<svg width="155" height="24" viewBox="0 0 155 24" fill="none" xmlns="http://www.w3.org/2000/svg">
<path d="M13.82 18.6267H5.09L3.59 22.8867H0.0200001L7.49 2.00672H11.45L18.92 22.8867H15.32L13.82 18.6267ZM12.86 15.8367L9.47 6.14672L6.05 15.8367H12.86ZM30.508 6.08672C31.808 6.08672 32.968 6.35672 33.988 6.89672C35.028 7.43672 35.838 8.23672 36.418 9.29672C36.998 10.3567 37.288 11.6367 37.288 13.1367V22.8867H33.898V13.6467C33.898 12.1667 33.528 11.0367 32.788 10.2567C32.048 9.45672 31.038 9.05672 29.758 9.05672C28.478 9.05672 27.458 9.45672 26.698 10.2567C25.958 11.0367 25.588 12.1667 25.588 13.6467V22.8867H22.168V6.35672H25.588V8.24672C26.148 7.56672 26.858 7.03672 27.718 6.65672C28.598 6.27672 29.528 6.08672 30.508 6.08672ZM40.5104 14.5467C40.5104 12.8867 40.8504 11.4167 41.5304 10.1367C42.2304 8.85672 43.1704 7.86672 44.3504 7.16672C45.5504 6.44672 46.8704 6.08672 48.3104 6.08672C49.6104 6.08672 50.7404 6.34672 51.7004 6.86672C52.6804 7.36672 53.4604 7.99672 54.0404 8.75672V6.35672H57.4904V22.8867H54.0404V20.4267C53.4604 21.2067 52.6704 21.8567 51.6704 22.3767C50.6704 22.8967 49.5304 23.1567 48.2504 23.1567C46.8304 23.1567 45.5304 22.7967 44.3504 22.0767C43.1704 21.3367 42.2304 20.3167 41.5304 19.0167C40.8504 17.6967 40.5104 16.2067 40.5104 14.5467ZM54.0404 14.6067C54.0404 13.4667 53.8004 12.4767 53.3204 11.6367C52.8604 10.7967 52.2504 10.1567 51.4904 9.71672C50.7304 9.27672 49.9104 9.05672 49.0304 9.05672C48.1504 9.05672 47.3304 9.27672 46.5704 9.71672C45.8104 10.1367 45.1904 10.7667 44.7104 11.6067C44.2504 12.4267 44.0204 13.4067 44.0204 14.5467C44.0204 15.6867 44.2504 16.6867 44.7104 17.5467C45.1904 18.4067 45.8104 19.0667 46.5704 19.5267C47.3504 19.9667 48.1704 20.1867 49.0304 20.1867C49.9104 20.1867 50.7304 19.9667 51.4904 19.5267C52.2504 19.0867 52.8604 18.4467 53.3204 17.6067C53.8004 16.7467 54.0404 15.7467 54.0404 14.6067ZM60.8424 14.6067C60.8424 12.9067 61.1824 11.4167 61.8624 10.1367C62.5624 8.83672 63.5224 7.83672 64.7424 7.13672C65.9624 6.43672 67.3624 6.08672 68.9424 6.08672C70.9424 6.08672 72.5924 6.56672 73.8924 7.52672C75.2124 8.46672 76.1024 9.81672 76.5624 11.5767H72.8724C72.5724 10.7567 72.0924 10.1167 71.4324 9.65672C70.7724 9.19672 69.9424 8.96672 68.9424 8.96672C67.5424 8.96672 66.4224 9.46672 65.5824 10.4667C64.7624 11.4467 64.3524 12.8267 64.3524 14.6067C64.3524 16.3867 64.7624 17.7767 65.5824 18.7767C66.4224 19.7767 67.5424 20.2767 68.9424 20.2767C70.9224 20.2767 72.2324 19.4067 72.8724 17.6667H76.5624C76.0824 19.3467 75.1824 20.6867 73.8624 21.6867C72.5424 22.6667 70.9024 23.1567 68.9424 23.1567C67.3624 23.1567 65.9624 22.8067 64.7424 22.1067C63.5224 21.3867 62.5624 20.3867 61.8624 19.1067C61.1824 17.8067 60.8424 16.3067 60.8424 14.6067ZM87.1407 23.1567C85.5807 23.1567 84.1707 22.8067 82.9107 22.1067C81.6507 21.3867 80.6607 20.3867 79.9407 19.1067C79.2207 17.8067 78.8607 16.3067 78.8607 14.6067C78.8607 12.9267 79.2307 11.4367 79.9707 10.1367C80.7107 8.83672 81.7207 7.83672 83.0007 7.13672C84.2807 6.43672 85.7107 6.08672 87.2907 6.08672C88.8707 6.08672 90.3007 6.43672 91.5807 7.13672C92.8607 7.83672 93.8707 8.83672 94.6107 10.1367C95.3507 11.4367 95.7207 12.9267 95.7207 14.6067C95.7207 16.2867 95.3407 17.7767 94.5807 19.0767C93.8207 20.3767 92.7807 21.3867 91.4607 22.1067C90.1607 22.8067 88.7207 23.1567 87.1407 23.1567ZM87.1407 20.1867C88.0207 20.1867 88.8407 19.9767 89.6007 19.5567C90.3807 19.1367 91.0107 18.5067 91.4907 17.6667C91.9707 16.8267 92.2107 15.8067 92.2107 14.6067C92.2107 13.4067 91.9807 12.3967 91.5207 11.5767C91.0607 10.7367 90.4507 10.1067 89.6907 9.68672C88.9307 9.26672 88.1107 9.05672 87.2307 9.05672C86.3507 9.05672 85.5307 9.26672 84.7707 9.68672C84.0307 10.1067 83.4407 10.7367 83.0007 11.5767C82.5607 12.3967 82.3407 13.4067 82.3407 14.6067C82.3407 16.3867 82.7907 17.7667 83.6907 18.7467C84.6107 19.7067 85.7607 20.1867 87.1407 20.1867ZM107.442 6.08672C108.742 6.08672 109.902 6.35672 110.922 6.89672C111.962 7.43672 112.772 8.23672 113.352 9.29672C113.932 10.3567 114.222 11.6367 114.222 13.1367V22.8867H110.832V13.6467C110.832 12.1667 110.462 11.0367 109.722 10.2567C108.982 9.45672 107.972 9.05672 106.692 9.05672C105.412 9.05672 104.392 9.45672 103.632 10.2567C102.892 11.0367 102.522 12.1667 102.522 13.6467V22.8867H99.1016V6.35672H102.522V8.24672C103.082 7.56672 103.792 7.03672 104.652 6.65672C105.532 6.27672 106.462 6.08672 107.442 6.08672ZM117.444 14.5467C117.444 12.8867 117.784 11.4167 118.464 10.1367C119.164 8.85672 120.104 7.86672 121.284 7.16672C122.484 6.44672 123.814 6.08672 125.274 6.08672C126.354 6.08672 127.414 6.32672 128.454 6.80672C129.514 7.26672 130.354 7.88672 130.974 8.66672V0.686718H134.424V22.8867H130.974V20.3967C130.414 21.1967 129.634 21.8567 128.634 22.3767C127.654 22.8967 126.524 23.1567 125.244 23.1567C123.804 23.1567 122.484 22.7967 121.284 22.0767C120.104 21.3367 119.164 20.3167 118.464 19.0167C117.784 17.6967 117.444 16.2067 117.444 14.5467ZM130.974 14.6067C130.974 13.4667 130.734 12.4767 130.254 11.6367C129.794 10.7967 129.184 10.1567 128.424 9.71672C127.664 9.27672 126.844 9.05672 125.964 9.05672C125.084 9.05672 124.264 9.27672 123.504 9.71672C122.744 10.1367 122.124 10.7667 121.644 11.6067C121.184 12.4267 120.954 13.4067 120.954 14.5467C120.954 15.6867 121.184 16.6867 121.644 17.5467C122.124 18.4067 122.744 19.0667 123.504 19.5267C124.284 19.9667 125.104 20.1867 125.964 20.1867C126.844 20.1867 127.664 19.9667 128.424 19.5267C129.184 19.0867 129.794 18.4467 130.254 17.6067C130.734 16.7467 130.974 15.7467 130.974 14.6067ZM137.776 14.5467C137.776 12.8867 138.116 11.4167 138.796 10.1367C139.496 8.85672 140.436 7.86672 141.616 7.16672C142.816 6.44672 144.136 6.08672 145.576 6.08672C146.876 6.08672 148.006 6.34672 148.966 6.86672C149.946 7.36672 150.726 7.99672 151.306 8.75672V6.35672H154.756V22.8867H151.306V20.4267C150.726 21.2067 149.936 21.8567 148.936 22.3767C147.936 22.8967 146.796 23.1567 145.516 23.1567C144.096 23.1567 142.796 22.7967 141.616 22.0767C140.436 21.3367 139.496 20.3167 138.796 19.0167C138.116 17.6967 137.776 16.2067 137.776 14.5467ZM151.306 14.6067C151.306 13.4667 151.066 12.4767 150.586 11.6367C150.126 10.7967 149.516 10.1567 148.756 9.71672C147.996 9.27672 147.176 9.05672 146.296 9.05672C145.416 9.05672 144.596 9.27672 143.836 9.71672C143.076 10.1367 142.456 10.7667 141.976 11.6067C141.516 12.4267 141.286 13.4067 141.286 14.5467C141.286 15.6867 141.516 16.6867 141.976 17.5467C142.456 18.4067 143.076 19.0667 143.836 19.5267C144.616 19.9667 145.436 20.1867 146.296 20.1867C147.176 20.1867 147.996 19.9667 148.756 19.5267C149.516 19.0867 150.126 18.4467 150.586 17.6067C151.066 16.7467 151.306 15.7467 151.306 14.6067Z" fill="black"/>
</svg>
