<svg width="172" height="65" viewBox="0 0 172 65" fill="none" xmlns="http://www.w3.org/2000/svg">
<g clip-path="url(#clip0_497_1115)">
<path d="M59.9888 18.1716H58.0197L56.1485 14.0209H50.6123L48.7737 18.1716H46.8047L52.513 5.27577H54.2895L59.9888 18.1716ZM55.4529 12.3641L53.4101 7.65251L51.3437 12.3641H55.4529ZM67.7898 6.91528H62.6027V10.8609H67.5914V12.4834H62.6027V18.1713H60.8085V5.27539H67.7898V6.91528ZM78.4215 18.1716H76.1418L71.399 12.0366H73.0008C73.9867 12.0366 74.7891 11.8546 75.4109 11.4928C76.1599 11.0543 76.533 10.3941 76.533 9.50843C76.533 8.69717 76.1866 8.04794 75.4969 7.56413C74.8751 7.13131 74.1233 6.91528 73.2467 6.91528H70.9375V18.1716H69.1433V5.27577H72.8413C74.9195 5.27577 76.4058 5.75127 77.3029 6.70189C77.9392 7.37378 78.2797 8.25642 78.3273 9.35244C78.3689 10.3004 78.0551 11.197 77.3917 12.0427C76.7286 12.8883 75.8669 13.3721 74.804 13.4918L78.4219 18.172L78.4215 18.1716ZM81.4059 18.1716H79.6117V5.27577H81.4059V18.1716ZM96.2176 14.4281C94.6485 17.0613 92.5467 18.3767 89.9115 18.3767C88.067 18.3767 86.4684 17.7732 85.1153 16.5661C83.6852 15.2937 82.9719 13.6739 82.9719 11.7122C82.9719 11.4048 82.9896 11.1056 83.0253 10.8095C83.2268 9.08996 84.0143 7.68952 85.382 6.60482C86.6731 5.58282 88.1707 5.07031 89.8762 5.07031C92.5644 5.07031 94.6548 6.36273 96.1469 8.95059H94.1602C93.5797 8.22167 92.9375 7.68386 92.227 7.34206C91.5192 7.00063 90.7556 6.82954 89.9414 6.82954C88.5443 6.82954 87.351 7.27634 86.3561 8.17031C85.2964 9.12697 84.7661 10.3197 84.7661 11.7518C84.7661 13.181 85.296 14.3711 86.3561 15.3273C87.3569 16.2326 88.5411 16.6851 89.906 16.6851C91.6292 16.6851 93.0593 15.9335 94.1932 14.4277H96.218L96.2176 14.4281ZM109.478 18.1716H107.509L105.638 14.0209H100.102L98.2632 18.1716H96.2942L102.002 5.27577H103.779L109.478 18.1716ZM104.942 12.3641L102.9 7.65251L100.833 12.3641H104.942Z" fill="#150C21"/>
<path d="M54.5153 23.3914H51.6198V34.6818H49.8256V23.3914H46.877V21.7859H54.5153V23.3914ZM64.6671 34.6818H62.3874L57.6446 28.5468H59.2464C60.2323 28.5468 61.0347 28.3647 61.6565 28.0029C62.4055 27.5644 62.7787 26.9042 62.7787 26.0186C62.7787 25.2073 62.4322 24.5581 61.7425 24.0743C61.1207 23.6415 60.3689 23.4254 59.4923 23.4254H57.1831V34.6818H55.3889V21.7859H59.0869C61.1651 21.7859 62.6514 22.2614 63.5485 23.212C64.1848 23.8839 64.5253 24.7666 64.5729 25.8626C64.6145 26.8106 64.3007 27.7072 63.6373 28.5528C62.9743 29.3984 62.1125 29.8822 61.0496 30.002L64.6675 34.6822L64.6671 34.6818ZM77.7974 34.6818H75.8284L73.9572 30.5311H68.4209L66.5823 34.6818H64.6133L70.3216 21.7859H72.0982L77.7974 34.6818ZM73.2616 28.8742L71.2187 24.1627L69.1523 28.8742H73.2616ZM80.4113 34.6818H78.6171V21.7859H80.4113V34.6818ZM93.1865 34.6818H91.5463L84.3223 24.3337V34.6818H82.528V21.7859H84.6447L91.3919 31.4821V21.7859H93.1861V34.6818H93.1865ZM108.736 28.3791C108.736 30.2833 107.966 31.8749 106.427 33.1616C105.02 34.3343 103.404 34.9209 101.577 34.9209C99.8009 34.9209 98.2404 34.3003 96.8995 33.0589C95.4694 31.7351 94.7561 30.0896 94.7561 28.1226C94.7561 26.4461 95.3955 24.963 96.6748 23.6675C98.0456 22.2754 99.7153 21.5808 101.681 21.5808C103.665 21.5808 105.338 22.2384 106.697 23.5508C108.056 24.8632 108.736 26.4714 108.736 28.3791H108.736ZM106.942 28.3334C106.942 26.9386 106.433 25.7455 105.417 24.7549C104.402 23.7672 103.17 23.2717 101.725 23.2717C100.392 23.2717 99.2023 23.7472 98.1544 24.6978C97.0856 25.6658 96.5499 26.7845 96.5499 28.0569C96.5499 29.7765 97.1599 31.1086 98.3826 32.0539C99.3536 32.8024 100.452 33.1782 101.672 33.1782C102.98 33.1782 104.126 32.8138 105.109 32.0852C106.332 31.1856 106.942 29.9332 106.942 28.333V28.3334ZM121.585 21.7855L116.043 34.6814H114.474L109.008 21.7855H110.983L115.273 32.1793L119.587 21.7855H121.585H121.585ZM134.292 34.6814H132.323L130.452 30.5307H124.915L123.077 34.6814H121.108L126.816 21.7855H128.593L134.292 34.6814ZM129.756 28.8738L127.713 24.1623L125.647 28.8738H129.756ZM141.578 23.3907H138.682V34.681H136.888V23.3907H133.939V21.7852H141.578V23.3907ZM144.245 34.681H142.451V21.7852H144.245V34.681ZM159.809 28.3783C159.809 30.2826 159.039 31.8741 157.5 33.1609C156.093 34.3336 154.477 34.9201 152.65 34.9201C150.874 34.9201 149.314 34.2996 147.973 33.0581C146.543 31.7344 145.829 30.0888 145.829 28.1219C145.829 26.4453 146.469 24.9622 147.748 23.6668C149.119 22.2746 150.789 21.5801 152.754 21.5801C154.738 21.5801 156.411 22.2376 157.77 23.5501C159.129 24.8625 159.809 26.4707 159.809 28.3783H159.809ZM158.015 28.3326C158.015 26.9378 157.506 25.7448 156.49 24.7541C155.475 23.7665 154.243 23.271 152.798 23.271C151.466 23.271 150.276 23.7464 149.228 24.6971C148.159 25.6651 147.623 26.7837 147.623 28.0561C147.623 29.7757 148.233 31.1078 149.456 32.0531C150.427 32.8017 151.525 33.1775 152.745 33.1775C154.053 33.1775 155.199 32.813 156.182 32.0845C157.405 31.1848 158.015 29.9325 158.015 28.3322V28.3326ZM172.001 34.681H170.361L163.137 24.333V34.681H161.343V21.7852H163.459L170.206 31.4813V21.7852H172.001V34.681H172.001Z" fill="#150C21"/>
<path d="M60.7418 47.4496C59.1727 50.0827 57.0709 51.3982 54.4357 51.3982C52.5912 51.3982 50.9926 50.7947 49.6395 49.5876C48.2094 48.3152 47.4961 46.6953 47.4961 44.7337C47.4961 44.4262 47.5138 44.1271 47.5495 43.831C47.751 42.1114 48.5385 40.711 49.9062 39.6263C51.1973 38.6043 52.6949 38.0918 54.4004 38.0918C57.0886 38.0918 59.179 39.3842 60.6711 41.9721H58.6844C58.1039 41.2432 57.4617 40.7053 56.7512 40.3635C56.0434 40.0221 55.2798 39.851 54.4656 39.851C53.0685 39.851 51.8752 40.2978 50.8803 41.1918C49.8206 42.1485 49.2903 43.3412 49.2903 44.7733C49.2903 46.2025 49.8202 47.3925 50.8803 48.3488C51.8811 49.2541 53.0653 49.7066 54.4302 49.7066C56.1534 49.7066 57.5835 48.955 58.7174 47.4492H60.7422L60.7418 47.4496ZM75.5096 44.8904C75.5096 46.7947 74.7397 48.3862 73.2004 49.673C71.7939 50.8457 70.1776 51.4322 68.3508 51.4322C66.5746 51.4322 65.0141 50.8117 63.6731 49.5702C62.243 48.2465 61.5297 46.6009 61.5297 44.634C61.5297 42.9574 62.1692 41.4743 63.4485 40.1789C64.8193 38.7867 66.489 38.0922 68.4549 38.0922C70.4384 38.0922 72.1112 38.7497 73.4703 40.0622C74.8293 41.3746 75.51 42.9827 75.51 44.8904H75.5096ZM73.7154 44.8447C73.7154 43.4499 73.2063 42.2568 72.1906 41.2662C71.1752 40.2786 69.9435 39.783 68.4984 39.783C67.1661 39.783 65.976 40.2585 64.9281 41.2092C63.8593 42.1772 63.3236 43.2958 63.3236 44.5682C63.3236 46.2878 63.9336 47.6199 65.1563 48.5652C66.1272 49.3138 67.2258 49.6896 68.4454 49.6896C69.7538 49.6896 70.8995 49.3251 71.8826 48.5966C73.1054 47.6969 73.7154 46.4446 73.7154 44.8443V44.8447ZM87.7015 51.1931H86.0612L78.8372 40.8451V51.1931H77.043V38.2973H79.1597L85.9069 47.9934V38.2973H87.7011V51.1931H87.7015ZM97.2288 47.4979C97.2288 48.4886 96.8914 49.3599 96.2134 50.1115C95.4467 50.9684 94.4223 51.3982 93.1462 51.3982C91.8791 51.3982 90.8488 51.005 90.0554 50.2168C89.2589 49.4312 88.8621 48.4262 88.8621 47.2079H90.7868C90.7868 47.9451 91.0001 48.5373 91.4294 48.9897C91.8673 49.4566 92.4624 49.69 93.2145 49.69C93.8037 49.69 94.3218 49.4792 94.766 49.0551C95.213 48.6336 95.4353 48.1385 95.4353 47.5719C95.4353 47.1078 95.3167 46.7006 95.0799 46.3449C94.7601 45.8667 94.0822 45.4596 93.0402 45.1265C91.7554 44.7137 90.9262 44.3692 90.5562 44.0901C89.7361 43.4779 89.3244 42.5613 89.3244 41.3372C89.3244 40.3862 89.7153 39.598 90.4969 38.9771C91.2251 38.3879 92.0955 38.0918 93.1081 38.0918C94.2212 38.0918 95.151 38.4733 95.8968 39.2331C96.572 39.9307 96.9122 40.6849 96.9122 41.5019V41.929H95.1478C94.9467 40.5199 94.2656 39.8167 93.1081 39.8167C93.037 39.794 92.9659 39.7823 92.8921 39.7823C92.4985 39.7823 92.1163 39.9277 91.7522 40.2181C91.3288 40.5512 91.1187 40.9554 91.1187 41.4278C91.1187 42.4072 91.5598 43.0821 92.4392 43.4492L95.1038 44.2661C96.1667 44.7216 96.8537 45.5215 97.1616 46.6629C97.1942 46.9019 97.2178 47.0556 97.2295 47.1214V47.4972L97.2288 47.4979ZM107.6 46.4446C107.6 48.0331 107.123 49.2828 106.167 50.1881C105.323 50.9937 104.263 51.3982 102.99 51.3982C101.741 51.3982 100.684 51.0111 99.8223 50.2395C98.86 49.3825 98.3804 48.2438 98.3804 46.8204V38.2969H100.175V46.7546C100.175 47.5889 100.42 48.2891 100.915 48.8557C101.444 49.4562 102.134 49.7579 102.99 49.7579C103.896 49.7579 104.609 49.4192 105.125 48.7416C105.578 48.1407 105.806 47.3865 105.806 46.4785V38.2969H107.6V46.4446H107.6ZM116.736 51.1931H109.648V38.2973H111.443V49.5706L116.736 49.5362V51.1931ZM124.093 39.9028H121.198V51.1931H119.404V39.9028H116.455V38.2973H124.093V39.9028ZM126.761 51.1931H124.967V38.2973H126.761V51.1931ZM139.536 51.1931H137.896L130.672 40.8451V51.1931H128.877V38.2973H130.994L137.741 47.9934V38.2973H139.536V51.1931H139.536ZM155.227 44.9588C154.955 47.0881 154.096 48.728 152.648 49.8811C151.385 50.8917 149.854 51.3986 148.062 51.3986C146.153 51.3986 144.516 50.7493 143.151 49.4513C141.786 48.1532 141.105 46.5843 141.105 44.7484C141.105 42.7357 141.845 41.0932 143.325 39.8204C144.661 38.6674 146.218 38.0926 147.991 38.0926C149.46 38.0926 150.771 38.4427 151.926 39.1402C153.078 39.8378 153.954 40.8258 154.549 42.1039H152.53C152.086 41.3493 151.446 40.7688 150.614 40.359C149.833 39.9745 148.971 39.7838 148.03 39.7838C146.499 39.7838 145.232 40.3133 144.234 41.3753C143.32 42.346 142.864 43.4707 142.864 44.7458C142.864 46.1949 143.438 47.4076 144.589 48.3839C145.623 49.2666 146.774 49.7077 148.047 49.7077C148.971 49.7077 149.874 49.4856 150.751 49.0415C151.896 48.4667 152.654 47.6524 153.021 46.599H146.005V44.9591H155.227V44.9588Z" fill="#150C21"/>
<path fill-rule="evenodd" clip-rule="evenodd" d="M0.00102484 18.8713C0.00102484 22.6685 1.76461 27.0088 4.43983 29.7496C7.216 32.5947 8.78477 36.1679 9.61943 40.0112C9.98393 41.6884 9.0495 42.468 11.4482 42.6149C11.5598 42.4887 11.7004 42.3777 11.8693 42.2908C12.2067 42.116 24.5545 42.0714 26.1398 42.1858C26.6166 42.2195 26.9925 42.4019 27.2348 42.6572C28.139 42.6081 28.8928 42.3584 28.9544 41.4237C29.0542 39.9148 29.2066 38.7754 29.6642 37.526C30.4623 35.3461 31.3119 33.1891 32.7754 31.3147C34.145 29.5608 34.1627 29.9932 35.9141 27.4915C36.704 26.3629 37.8505 24.0157 38.1203 22.6843C38.7943 19.36 38.761 17.8478 38.2551 15.2376C38.2134 15.4593 38.1686 15.6901 38.1203 15.9299C37.8501 17.2612 36.704 19.6085 35.9141 20.7374C34.1627 23.2392 34.145 22.806 32.7754 24.5599C31.3119 26.4347 30.4623 28.592 29.6642 30.7712C29.2066 32.021 29.0542 33.1604 28.9544 34.6689C28.8519 36.2109 26.868 35.8888 25.432 35.8775L12.5998 35.8861C8.77495 35.9058 10.033 35.1576 9.61943 33.2564C8.78516 29.4138 7.2164 25.8406 4.43983 22.9956C2.47593 20.9821 1.00301 18.108 0.358455 15.2188C0.310536 15.4578 0.265759 15.7003 0.225302 15.9462C-0.0319687 17.4962 0.00141762 16.8855 0.00141762 18.8709L0.00102484 18.8713Z" fill="#150C21"/>
<path fill-rule="evenodd" clip-rule="evenodd" d="M11.871 44.9627C10.684 45.5753 10.8992 47.3629 12.5925 47.3995C14.7422 47.4463 26.1368 47.5506 26.7393 47.2212C28.1183 46.4681 27.6112 44.9635 26.1415 44.8577C24.5566 44.7437 12.2084 44.7886 11.8714 44.9631L11.871 44.9627Z" fill="#150C21"/>
<path fill-rule="evenodd" clip-rule="evenodd" d="M16.6824 51.3231C18.8725 51.3231 24.1205 52.0581 23.3435 49.7633C22.9818 48.6948 21.71 48.8708 20.4154 48.8716C19.5167 48.8719 16.6419 48.7069 16.0433 48.946C15.3073 49.2398 14.7008 51.3231 16.6828 51.3231H16.6824Z" fill="#150C21"/>
<path fill-rule="evenodd" clip-rule="evenodd" d="M29.1161 24.5157L29.327 22.403C29.1813 22.1189 29.1086 22.2636 28.9122 21.7303C28.7158 21.1963 28.8364 21.3251 28.8415 20.777C28.8486 20.0636 28.2751 20.8405 29.0041 19.3562C29.4063 18.5374 30.3302 17.4954 31.0159 17.0086C32.2701 16.1187 32.3274 15.8026 33.2465 14.8739C33.5462 14.5718 34.5616 12.3197 34.2069 11.8C34.1896 11.7996 32.3325 12.3227 32.0757 12.3363C31.5611 12.3623 31.4095 12.6109 31.1051 12.5145C30.728 12.3952 30.9472 12.1807 30.3423 11.9352L30.6075 11.57L28.5874 10.0366C28.3635 9.70952 28.2826 9.13053 28.0135 8.88731C27.5524 8.47073 27.4578 8.69885 27.358 7.857C27.2873 7.26593 27.1655 7.07709 26.7189 6.78174C26.4 6.57024 26.5524 6.52379 26.4479 6.20692C26.4467 6.20352 24.8642 3.94235 24.8811 3.55749L25.5995 4.46052L25.8254 4.40689L25.6188 2.88296C25.0795 2.95056 24.29 2.74473 23.9459 2.83499C23.0237 3.07671 23.4302 3.11485 22.3618 2.86785C21.9887 2.78098 21.0994 2.625 20.7989 2.47468C19.4391 1.79524 19.4772 2.29604 19.2357 3.35732L15.0695 1.7012L15.6288 1.11806L15.5432 0.389138L14.9025 0.208984C14.7497 0.418219 12.0745 0.303782 11.5179 0.575334C10.3129 1.16414 10.3966 1.06858 9.39811 1.06292C8.91656 1.06065 9.15144 0.848774 8.81169 0.755865C8.38356 0.931108 8.58348 1.44513 7.63885 1.79373C7.30812 1.91534 6.6895 2.47959 6.55909 2.86521C6.24605 3.78901 6.47347 3.54239 5.55986 4.07038C5.20596 4.27508 5.02686 4.16858 4.79315 4.41596C4.5457 4.67807 4.62701 4.68184 4.25229 4.9296C4.01466 5.0871 2.37088 7.12732 2.42901 7.38716C2.53388 7.85775 2.82022 7.40265 2.58848 8.07001C2.45572 8.45184 2.66468 8.50774 2.50717 8.97531C2.21494 9.83982 2.32335 9.83831 1.76953 10.3931L1.88383 10.3909L1.88108 11.5473C2.24283 11.7977 2.29861 11.6844 2.4895 11.9922C2.64739 12.2464 2.77976 12.3272 2.98401 12.5455C3.51662 13.1139 3.21968 13.4814 3.73815 13.8274C4.39055 14.2628 5.63056 15.5179 6.37488 15.2218C6.92791 15.0016 7.52769 14.8792 8.23941 15.0246C9.5835 15.2999 9.51634 14.4301 11.4417 14.3939C12.3389 14.3776 12.1248 14.8271 12.514 15.386L13.866 15.2259C14.7658 16.1588 14.3687 15.6157 14.2768 16.7525C14.2195 17.4686 13.8114 17.7922 14.2328 18.378C14.9882 19.4283 15.6233 19.4605 16.0518 21.1634C16.1296 21.4731 16.401 22.8826 16.2769 23.1326C16.1677 23.3513 15.9304 23.4053 15.7745 23.7879C15.659 24.0704 15.6492 24.4303 15.5636 24.7208C15.1641 26.0732 17.0605 24.1052 17.5243 25.1978C17.6174 25.4176 17.8378 26.7432 17.912 27.0809C18.0621 27.7652 18.5224 27.8087 18.8237 28.4779C18.967 28.7956 19.0581 28.9825 19.231 29.2208C19.6194 29.7564 19.3032 29.7027 19.3036 30.006C19.304 30.7455 20.1901 30.6836 20.8041 30.5752C22.9035 30.2032 20.9352 29.7968 22.4624 28.4247C22.8968 28.0349 22.5299 30.1412 22.8296 29.929C23.526 29.4365 23.2632 28.7793 23.4168 28.3805C24.0967 28.0496 24.4785 28.2736 24.6509 27.4986C24.8772 26.4815 26.1569 27.4034 26.1353 26.8339L29.1161 24.5146V24.5157Z" fill="#150C21"/>
<path fill-rule="evenodd" clip-rule="evenodd" d="M24.6008 15.2383C24.9138 15.2383 25.1699 15.4845 25.1699 15.7855V35.8566C25.1699 36.158 24.9138 36.4038 24.6008 36.4038C24.2877 36.4038 24.0312 36.158 24.0312 35.8566V15.7855C24.0312 15.4842 24.2873 15.2383 24.6008 15.2383Z" fill="#150C21"/>
<path fill-rule="evenodd" clip-rule="evenodd" d="M14.0324 15.2383C14.3455 15.2383 14.6012 15.4845 14.6012 15.7855V35.8566C14.6012 36.158 14.3455 36.4038 14.0324 36.4038C13.719 36.4038 13.4629 36.158 13.4629 35.8566V15.7855C13.4629 15.4842 13.719 15.2383 14.0324 15.2383Z" fill="#150C21"/>
</g>
<defs>
<clipPath id="clip0_497_1115">
<rect width="172" height="64.7038" fill="white" transform="translate(0 0.208984)"/>
</clipPath>
</defs>
</svg>
