<svg width="218" height="25" viewBox="0 0 218 25" fill="none" xmlns="http://www.w3.org/2000/svg">
<path d="M0.11 13.4167C0.11 11.3767 0.58 9.54672 1.52 7.92672C2.48 6.30672 3.77 5.04672 5.39 4.14672C7.03 3.22672 8.82 2.76672 10.76 2.76672C12.98 2.76672 14.95 3.31672 16.67 4.41672C18.41 5.49672 19.67 7.03672 20.45 9.03672H16.34C15.8 7.93672 15.05 7.11672 14.09 6.57672C13.13 6.03672 12.02 5.76672 10.76 5.76672C9.38 5.76672 8.15 6.07672 7.07 6.69672C5.99 7.31672 5.14 8.20672 4.52 9.36672C3.92 10.5267 3.62 11.8767 3.62 13.4167C3.62 14.9567 3.92 16.3067 4.52 17.4667C5.14 18.6267 5.99 19.5267 7.07 20.1667C8.15 20.7867 9.38 21.0967 10.76 21.0967C12.02 21.0967 13.13 20.8267 14.09 20.2867C15.05 19.7467 15.8 18.9267 16.34 17.8267H20.45C19.67 19.8267 18.41 21.3667 16.67 22.4467C14.95 23.5267 12.98 24.0667 10.76 24.0667C8.8 24.0667 7.01 23.6167 5.39 22.7167C3.77 21.7967 2.48 20.5267 1.52 18.9067C0.58 17.2867 0.11 15.4567 0.11 13.4167ZM27.8731 9.75672C28.3731 8.91672 29.0331 8.26672 29.8531 7.80672C30.6931 7.32672 31.6831 7.08672 32.8231 7.08672V10.6267H31.9531C30.6131 10.6267 29.5931 10.9667 28.8931 11.6467C28.2131 12.3267 27.8731 13.5067 27.8731 15.1867V23.8867H24.4531V7.35672H27.8731V9.75672ZM51.1168 15.2167C51.1168 15.8367 51.0768 16.3967 50.9968 16.8967H38.3668C38.4668 18.2167 38.9568 19.2767 39.8368 20.0767C40.7168 20.8767 41.7968 21.2767 43.0768 21.2767C44.9168 21.2767 46.2168 20.5067 46.9768 18.9667H50.6668C50.1668 20.4867 49.2568 21.7367 47.9368 22.7167C46.6368 23.6767 45.0168 24.1567 43.0768 24.1567C41.4968 24.1567 40.0768 23.8067 38.8168 23.1067C37.5768 22.3867 36.5968 21.3867 35.8768 20.1067C35.1768 18.8067 34.8268 17.3067 34.8268 15.6067C34.8268 13.9067 35.1668 12.4167 35.8468 11.1367C36.5468 9.83672 37.5168 8.83672 38.7568 8.13672C40.0168 7.43672 41.4568 7.08672 43.0768 7.08672C44.6368 7.08672 46.0268 7.42672 47.2468 8.10672C48.4668 8.78672 49.4168 9.74672 50.0968 10.9867C50.7768 12.2067 51.1168 13.6167 51.1168 15.2167ZM47.5468 14.1367C47.5268 12.8767 47.0768 11.8667 46.1968 11.1067C45.3168 10.3467 44.2268 9.96672 42.9268 9.96672C41.7468 9.96672 40.7368 10.3467 39.8968 11.1067C39.0568 11.8467 38.5568 12.8567 38.3968 14.1367H47.5468ZM53.3424 15.5467C53.3424 13.8867 53.6824 12.4167 54.3624 11.1367C55.0624 9.85672 56.0024 8.86672 57.1824 8.16672C58.3824 7.44672 59.7024 7.08672 61.1424 7.08672C62.4424 7.08672 63.5724 7.34672 64.5324 7.86672C65.5124 8.36672 66.2924 8.99672 66.8724 9.75672V7.35672H70.3224V23.8867H66.8724V21.4267C66.2924 22.2067 65.5024 22.8567 64.5024 23.3767C63.5024 23.8967 62.3624 24.1567 61.0824 24.1567C59.6624 24.1567 58.3624 23.7967 57.1824 23.0767C56.0024 22.3367 55.0624 21.3167 54.3624 20.0167C53.6824 18.6967 53.3424 17.2067 53.3424 15.5467ZM66.8724 15.6067C66.8724 14.4667 66.6324 13.4767 66.1524 12.6367C65.6924 11.7967 65.0824 11.1567 64.3224 10.7167C63.5624 10.2767 62.7424 10.0567 61.8624 10.0567C60.9824 10.0567 60.1624 10.2767 59.4024 10.7167C58.6424 11.1367 58.0224 11.7667 57.5424 12.6067C57.0824 13.4267 56.8524 14.4067 56.8524 15.5467C56.8524 16.6867 57.0824 17.6867 57.5424 18.5467C58.0224 19.4067 58.6424 20.0667 59.4024 20.5267C60.1824 20.9667 61.0024 21.1867 61.8624 21.1867C62.7424 21.1867 63.5624 20.9667 64.3224 20.5267C65.0824 20.0867 65.6924 19.4467 66.1524 18.6067C66.6324 17.7467 66.8724 16.7467 66.8724 15.6067ZM78.8045 10.1467V19.2967C78.8045 19.9167 78.9445 20.3667 79.2245 20.6467C79.5245 20.9067 80.0245 21.0367 80.7245 21.0367H82.8245V23.8867H80.1245C78.5845 23.8867 77.4045 23.5267 76.5845 22.8067C75.7645 22.0867 75.3545 20.9167 75.3545 19.2967V10.1467H73.4045V7.35672H75.3545V3.24672H78.8045V7.35672H82.8245V10.1467H78.8045ZM87.7166 5.16672C87.0966 5.16672 86.5766 4.95672 86.1566 4.53672C85.7366 4.11672 85.5266 3.59672 85.5266 2.97672C85.5266 2.35672 85.7366 1.83672 86.1566 1.41672C86.5766 0.996718 87.0966 0.786718 87.7166 0.786718C88.3166 0.786718 88.8266 0.996718 89.2466 1.41672C89.6666 1.83672 89.8766 2.35672 89.8766 2.97672C89.8766 3.59672 89.6666 4.11672 89.2466 4.53672C88.8266 4.95672 88.3166 5.16672 87.7166 5.16672ZM89.3966 7.35672V23.8867H85.9766V7.35672H89.3966ZM100.277 20.8267L104.957 7.35672H108.587L102.287 23.8867H98.2067L91.9367 7.35672H95.5967L100.277 20.8267ZM126.322 15.2167C126.322 15.8367 126.282 16.3967 126.202 16.8967H113.572C113.672 18.2167 114.162 19.2767 115.042 20.0767C115.922 20.8767 117.002 21.2767 118.282 21.2767C120.122 21.2767 121.422 20.5067 122.182 18.9667H125.872C125.372 20.4867 124.462 21.7367 123.142 22.7167C121.842 23.6767 120.222 24.1567 118.282 24.1567C116.702 24.1567 115.282 23.8067 114.022 23.1067C112.782 22.3867 111.802 21.3867 111.082 20.1067C110.382 18.8067 110.032 17.3067 110.032 15.6067C110.032 13.9067 110.372 12.4167 111.052 11.1367C111.752 9.83672 112.722 8.83672 113.962 8.13672C115.222 7.43672 116.662 7.08672 118.282 7.08672C119.842 7.08672 121.232 7.42672 122.452 8.10672C123.672 8.78672 124.622 9.74672 125.302 10.9867C125.982 12.2067 126.322 13.6167 126.322 15.2167ZM122.752 14.1367C122.732 12.8767 122.282 11.8667 121.402 11.1067C120.522 10.3467 119.432 9.96672 118.132 9.96672C116.952 9.96672 115.942 10.3467 115.102 11.1067C114.262 11.8467 113.762 12.8567 113.602 14.1367H122.752ZM136.34 15.6067C136.34 13.9067 136.68 12.4167 137.36 11.1367C138.06 9.83672 139.02 8.83672 140.24 8.13672C141.46 7.43672 142.86 7.08672 144.44 7.08672C146.44 7.08672 148.09 7.56672 149.39 8.52672C150.71 9.46672 151.6 10.8167 152.06 12.5767H148.37C148.07 11.7567 147.59 11.1167 146.93 10.6567C146.27 10.1967 145.44 9.96672 144.44 9.96672C143.04 9.96672 141.92 10.4667 141.08 11.4667C140.26 12.4467 139.85 13.8267 139.85 15.6067C139.85 17.3867 140.26 18.7767 141.08 19.7767C141.92 20.7767 143.04 21.2767 144.44 21.2767C146.42 21.2767 147.73 20.4067 148.37 18.6667H152.06C151.58 20.3467 150.68 21.6867 149.36 22.6867C148.04 23.6667 146.4 24.1567 144.44 24.1567C142.86 24.1567 141.46 23.8067 140.24 23.1067C139.02 22.3867 138.06 21.3867 137.36 20.1067C136.68 18.8067 136.34 17.3067 136.34 15.6067ZM158.889 1.68672V23.8867H155.469V1.68672H158.889ZM170.549 24.1567C168.989 24.1567 167.579 23.8067 166.319 23.1067C165.059 22.3867 164.069 21.3867 163.349 20.1067C162.629 18.8067 162.269 17.3067 162.269 15.6067C162.269 13.9267 162.639 12.4367 163.379 11.1367C164.119 9.83672 165.129 8.83672 166.409 8.13672C167.689 7.43672 169.119 7.08672 170.699 7.08672C172.279 7.08672 173.709 7.43672 174.989 8.13672C176.269 8.83672 177.279 9.83672 178.019 11.1367C178.759 12.4367 179.129 13.9267 179.129 15.6067C179.129 17.2867 178.749 18.7767 177.989 20.0767C177.229 21.3767 176.189 22.3867 174.869 23.1067C173.569 23.8067 172.129 24.1567 170.549 24.1567ZM170.549 21.1867C171.429 21.1867 172.249 20.9767 173.009 20.5567C173.789 20.1367 174.419 19.5067 174.899 18.6667C175.379 17.8267 175.619 16.8067 175.619 15.6067C175.619 14.4067 175.389 13.3967 174.929 12.5767C174.469 11.7367 173.859 11.1067 173.099 10.6867C172.339 10.2667 171.519 10.0567 170.639 10.0567C169.759 10.0567 168.939 10.2667 168.179 10.6867C167.439 11.1067 166.849 11.7367 166.409 12.5767C165.969 13.3967 165.749 14.4067 165.749 15.6067C165.749 17.3867 166.199 18.7667 167.099 19.7467C168.019 20.7067 169.169 21.1867 170.549 21.1867ZM197.48 7.35672V23.8867H194.06V21.9367C193.52 22.6167 192.81 23.1567 191.93 23.5567C191.07 23.9367 190.15 24.1267 189.17 24.1267C187.87 24.1267 186.7 23.8567 185.66 23.3167C184.64 22.7767 183.83 21.9767 183.23 20.9167C182.65 19.8567 182.36 18.5767 182.36 17.0767V7.35672H185.75V16.5667C185.75 18.0467 186.12 19.1867 186.86 19.9867C187.6 20.7667 188.61 21.1567 189.89 21.1567C191.17 21.1567 192.18 20.7667 192.92 19.9867C193.68 19.1867 194.06 18.0467 194.06 16.5667V7.35672H197.48ZM200.852 15.5467C200.852 13.8867 201.192 12.4167 201.872 11.1367C202.572 9.85672 203.512 8.86672 204.692 8.16672C205.892 7.44672 207.222 7.08672 208.682 7.08672C209.762 7.08672 210.822 7.32672 211.862 7.80672C212.922 8.26672 213.762 8.88672 214.382 9.66672V1.68672H217.832V23.8867H214.382V21.3967C213.822 22.1967 213.042 22.8567 212.042 23.3767C211.062 23.8967 209.932 24.1567 208.652 24.1567C207.212 24.1567 205.892 23.7967 204.692 23.0767C203.512 22.3367 202.572 21.3167 201.872 20.0167C201.192 18.6967 200.852 17.2067 200.852 15.5467ZM214.382 15.6067C214.382 14.4667 214.142 13.4767 213.662 12.6367C213.202 11.7967 212.592 11.1567 211.832 10.7167C211.072 10.2767 210.252 10.0567 209.372 10.0567C208.492 10.0567 207.672 10.2767 206.912 10.7167C206.152 11.1367 205.532 11.7667 205.052 12.6067C204.592 13.4267 204.362 14.4067 204.362 15.5467C204.362 16.6867 204.592 17.6867 205.052 18.5467C205.532 19.4067 206.152 20.0667 206.912 20.5267C207.692 20.9667 208.512 21.1867 209.372 21.1867C210.252 21.1867 211.072 20.9667 211.832 20.5267C212.592 20.0867 213.202 19.4467 213.662 18.6067C214.142 17.7467 214.382 16.7467 214.382 15.6067Z" fill="black"/>
</svg>
