<svg width="146" height="24" viewBox="0 0 146 24" fill="none" xmlns="http://www.w3.org/2000/svg">
<path d="M12.52 2.03672V4.82672H3.67V10.9767H10.57V13.7667H3.67V22.8867H0.25V2.03672H12.52ZM14.5495 14.5467C14.5495 12.8867 14.8895 11.4167 15.5695 10.1367C16.2695 8.85672 17.2095 7.86672 18.3895 7.16672C19.5895 6.44672 20.9095 6.08672 22.3495 6.08672C23.6495 6.08672 24.7795 6.34672 25.7395 6.86672C26.7195 7.36672 27.4995 7.99672 28.0795 8.75672V6.35672H31.5295V22.8867H28.0795V20.4267C27.4995 21.2067 26.7095 21.8567 25.7095 22.3767C24.7095 22.8967 23.5695 23.1567 22.2895 23.1567C20.8695 23.1567 19.5695 22.7967 18.3895 22.0767C17.2095 21.3367 16.2695 20.3167 15.5695 19.0167C14.8895 17.6967 14.5495 16.2067 14.5495 14.5467ZM28.0795 14.6067C28.0795 13.4667 27.8395 12.4767 27.3595 11.6367C26.8995 10.7967 26.2895 10.1567 25.5295 9.71672C24.7695 9.27672 23.9495 9.05672 23.0695 9.05672C22.1895 9.05672 21.3695 9.27672 20.6095 9.71672C19.8495 10.1367 19.2295 10.7667 18.7495 11.6067C18.2895 12.4267 18.0595 13.4067 18.0595 14.5467C18.0595 15.6867 18.2895 16.6867 18.7495 17.5467C19.2295 18.4067 19.8495 19.0667 20.6095 19.5267C21.3895 19.9667 22.2095 20.1867 23.0695 20.1867C23.9495 20.1867 24.7695 19.9667 25.5295 19.5267C26.2895 19.0867 26.8995 18.4467 27.3595 17.6067C27.8395 16.7467 28.0795 15.7467 28.0795 14.6067ZM34.8815 14.6067C34.8815 12.9067 35.2215 11.4167 35.9015 10.1367C36.6015 8.83672 37.5615 7.83672 38.7815 7.13672C40.0015 6.43672 41.4015 6.08672 42.9815 6.08672C44.9815 6.08672 46.6315 6.56672 47.9315 7.52672C49.2515 8.46672 50.1415 9.81672 50.6015 11.5767H46.9115C46.6115 10.7567 46.1315 10.1167 45.4715 9.65672C44.8115 9.19672 43.9815 8.96672 42.9815 8.96672C41.5815 8.96672 40.4615 9.46672 39.6215 10.4667C38.8015 11.4467 38.3915 12.8267 38.3915 14.6067C38.3915 16.3867 38.8015 17.7767 39.6215 18.7767C40.4615 19.7767 41.5815 20.2767 42.9815 20.2767C44.9615 20.2767 46.2715 19.4067 46.9115 17.6667H50.6015C50.1215 19.3467 49.2215 20.6867 47.9015 21.6867C46.5815 22.6667 44.9415 23.1567 42.9815 23.1567C41.4015 23.1567 40.0015 22.8067 38.7815 22.1067C37.5615 21.3867 36.6015 20.3867 35.9015 19.1067C35.2215 17.8067 34.8815 16.3067 34.8815 14.6067ZM69.1598 14.2167C69.1598 14.8367 69.1198 15.3967 69.0398 15.8967H56.4098C56.5098 17.2167 56.9998 18.2767 57.8798 19.0767C58.7598 19.8767 59.8398 20.2767 61.1198 20.2767C62.9598 20.2767 64.2598 19.5067 65.0198 17.9667H68.7098C68.2098 19.4867 67.2998 20.7367 65.9798 21.7167C64.6798 22.6767 63.0598 23.1567 61.1198 23.1567C59.5398 23.1567 58.1198 22.8067 56.8598 22.1067C55.6198 21.3867 54.6398 20.3867 53.9198 19.1067C53.2198 17.8067 52.8698 16.3067 52.8698 14.6067C52.8698 12.9067 53.2098 11.4167 53.8898 10.1367C54.5898 8.83672 55.5598 7.83672 56.7998 7.13672C58.0598 6.43672 59.4998 6.08672 61.1198 6.08672C62.6798 6.08672 64.0698 6.42672 65.2898 7.10672C66.5098 7.78672 67.4598 8.74672 68.1398 9.98672C68.8198 11.2067 69.1598 12.6167 69.1598 14.2167ZM65.5898 13.1367C65.5698 11.8767 65.1198 10.8667 64.2398 10.1067C63.3598 9.34672 62.2698 8.96672 60.9698 8.96672C59.7898 8.96672 58.7798 9.34672 57.9398 10.1067C57.0998 10.8467 56.5998 11.8567 56.4398 13.1367H65.5898ZM75.9454 8.81672C76.5254 8.01672 77.3154 7.36672 78.3154 6.86672C79.3354 6.34672 80.4654 6.08672 81.7054 6.08672C83.1654 6.08672 84.4854 6.43672 85.6654 7.13672C86.8454 7.83672 87.7754 8.83672 88.4554 10.1367C89.1354 11.4167 89.4754 12.8867 89.4754 14.5467C89.4754 16.2067 89.1354 17.6967 88.4554 19.0167C87.7754 20.3167 86.8354 21.3367 85.6354 22.0767C84.4554 22.7967 83.1454 23.1567 81.7054 23.1567C80.4254 23.1567 79.2854 22.9067 78.2854 22.4067C77.3054 21.9067 76.5254 21.2667 75.9454 20.4867V22.8867H72.5254V0.686718H75.9454V8.81672ZM85.9954 14.5467C85.9954 13.4067 85.7554 12.4267 85.2754 11.6067C84.8154 10.7667 84.1954 10.1367 83.4154 9.71672C82.6554 9.27672 81.8354 9.05672 80.9554 9.05672C80.0954 9.05672 79.2754 9.27672 78.4954 9.71672C77.7354 10.1567 77.1154 10.7967 76.6354 11.6367C76.1754 12.4767 75.9454 13.4667 75.9454 14.6067C75.9454 15.7467 76.1754 16.7467 76.6354 17.6067C77.1154 18.4467 77.7354 19.0867 78.4954 19.5267C79.2754 19.9667 80.0954 20.1867 80.9554 20.1867C81.8354 20.1867 82.6554 19.9667 83.4154 19.5267C84.1954 19.0667 84.8154 18.4067 85.2754 17.5467C85.7554 16.6867 85.9954 15.6867 85.9954 14.5467ZM100.027 23.1567C98.4674 23.1567 97.0574 22.8067 95.7974 22.1067C94.5374 21.3867 93.5474 20.3867 92.8274 19.1067C92.1074 17.8067 91.7474 16.3067 91.7474 14.6067C91.7474 12.9267 92.1174 11.4367 92.8574 10.1367C93.5974 8.83672 94.6074 7.83672 95.8874 7.13672C97.1674 6.43672 98.5974 6.08672 100.177 6.08672C101.757 6.08672 103.187 6.43672 104.467 7.13672C105.747 7.83672 106.757 8.83672 107.497 10.1367C108.237 11.4367 108.607 12.9267 108.607 14.6067C108.607 16.2867 108.227 17.7767 107.467 19.0767C106.707 20.3767 105.667 21.3867 104.347 22.1067C103.047 22.8067 101.607 23.1567 100.027 23.1567ZM100.027 20.1867C100.907 20.1867 101.727 19.9767 102.487 19.5567C103.267 19.1367 103.897 18.5067 104.377 17.6667C104.857 16.8267 105.097 15.8067 105.097 14.6067C105.097 13.4067 104.867 12.3967 104.407 11.5767C103.947 10.7367 103.337 10.1067 102.577 9.68672C101.817 9.26672 100.997 9.05672 100.117 9.05672C99.2374 9.05672 98.4174 9.26672 97.6574 9.68672C96.9174 10.1067 96.3274 10.7367 95.8874 11.5767C95.4474 12.3967 95.2274 13.4067 95.2274 14.6067C95.2274 16.3867 95.6774 17.7667 96.5774 18.7467C97.4974 19.7067 98.6474 20.1867 100.027 20.1867ZM119.158 23.1567C117.598 23.1567 116.188 22.8067 114.928 22.1067C113.668 21.3867 112.678 20.3867 111.958 19.1067C111.238 17.8067 110.878 16.3067 110.878 14.6067C110.878 12.9267 111.248 11.4367 111.988 10.1367C112.728 8.83672 113.738 7.83672 115.018 7.13672C116.298 6.43672 117.728 6.08672 119.308 6.08672C120.888 6.08672 122.318 6.43672 123.598 7.13672C124.878 7.83672 125.888 8.83672 126.628 10.1367C127.368 11.4367 127.738 12.9267 127.738 14.6067C127.738 16.2867 127.358 17.7767 126.598 19.0767C125.838 20.3767 124.798 21.3867 123.478 22.1067C122.178 22.8067 120.738 23.1567 119.158 23.1567ZM119.158 20.1867C120.038 20.1867 120.858 19.9767 121.618 19.5567C122.398 19.1367 123.028 18.5067 123.508 17.6667C123.988 16.8267 124.228 15.8067 124.228 14.6067C124.228 13.4067 123.998 12.3967 123.538 11.5767C123.078 10.7367 122.468 10.1067 121.708 9.68672C120.948 9.26672 120.128 9.05672 119.248 9.05672C118.368 9.05672 117.548 9.26672 116.788 9.68672C116.048 10.1067 115.458 10.7367 115.018 11.5767C114.578 12.3967 114.358 13.4067 114.358 14.6067C114.358 16.3867 114.808 17.7667 115.708 18.7467C116.628 19.7067 117.778 20.1867 119.158 20.1867ZM137.659 14.6367L145.279 22.8867H140.659L134.539 15.7767V22.8867H131.119V0.686718H134.539V13.5867L140.539 6.35672H145.279L137.659 14.6367Z" fill="black"/>
</svg>
