<svg width="150" height="32" viewBox="0 0 150 32" fill="none" xmlns="http://www.w3.org/2000/svg">
<path d="M22.21 3.03672V23.8867H18.79V9.60672L12.43 23.8867H10.06L3.67 9.60672V23.8867H0.25V3.03672H3.94L11.26 19.3867L18.55 3.03672H22.21ZM25.5651 15.5467C25.5651 13.8867 25.9051 12.4167 26.5851 11.1367C27.2851 9.85672 28.2251 8.86672 29.4051 8.16672C30.6051 7.44672 31.9251 7.08672 33.3651 7.08672C34.6651 7.08672 35.7951 7.34672 36.7551 7.86672C37.7351 8.36672 38.5151 8.99672 39.0951 9.75672V7.35672H42.5451V23.8867H39.0951V21.4267C38.5151 22.2067 37.7251 22.8567 36.7251 23.3767C35.7251 23.8967 34.5851 24.1567 33.3051 24.1567C31.8851 24.1567 30.5851 23.7967 29.4051 23.0767C28.2251 22.3367 27.2851 21.3167 26.5851 20.0167C25.9051 18.6967 25.5651 17.2067 25.5651 15.5467ZM39.0951 15.6067C39.0951 14.4667 38.8551 13.4767 38.3751 12.6367C37.9151 11.7967 37.3051 11.1567 36.5451 10.7167C35.7851 10.2767 34.9651 10.0567 34.0851 10.0567C33.2051 10.0567 32.3851 10.2767 31.6251 10.7167C30.8651 11.1367 30.2451 11.7667 29.7651 12.6067C29.3051 13.4267 29.0751 14.4067 29.0751 15.5467C29.0751 16.6867 29.3051 17.6867 29.7651 18.5467C30.2451 19.4067 30.8651 20.0667 31.6251 20.5267C32.4051 20.9667 33.2251 21.1867 34.0851 21.1867C34.9651 21.1867 35.7851 20.9667 36.5451 20.5267C37.3051 20.0867 37.9151 19.4467 38.3751 18.6067C38.8551 17.7467 39.0951 16.7467 39.0951 15.6067ZM51.0271 10.1467V19.2967C51.0271 19.9167 51.1671 20.3667 51.4471 20.6467C51.7471 20.9067 52.2471 21.0367 52.9471 21.0367H55.0471V23.8867H52.3471C50.8071 23.8867 49.6271 23.5267 48.8071 22.8067C47.9871 22.0867 47.5771 20.9167 47.5771 19.2967V10.1467H45.6271V7.35672H47.5771V3.24672H51.0271V7.35672H55.0471V10.1467H51.0271ZM61.6192 9.78672C62.1992 9.02672 62.9892 8.38672 63.9892 7.86672C64.9892 7.34672 66.1192 7.08672 67.3792 7.08672C68.8192 7.08672 70.1292 7.44672 71.3092 8.16672C72.5092 8.86672 73.4492 9.85672 74.1292 11.1367C74.8092 12.4167 75.1492 13.8867 75.1492 15.5467C75.1492 17.2067 74.8092 18.6967 74.1292 20.0167C73.4492 21.3167 72.5092 22.3367 71.3092 23.0767C70.1292 23.7967 68.8192 24.1567 67.3792 24.1567C66.1192 24.1567 64.9992 23.9067 64.0192 23.4067C63.0392 22.8867 62.2392 22.2467 61.6192 21.4867V31.7467H58.1992V7.35672H61.6192V9.78672ZM71.6692 15.5467C71.6692 14.4067 71.4292 13.4267 70.9492 12.6067C70.4892 11.7667 69.8692 11.1367 69.0892 10.7167C68.3292 10.2767 67.5092 10.0567 66.6292 10.0567C65.7692 10.0567 64.9492 10.2767 64.1692 10.7167C63.4092 11.1567 62.7892 11.7967 62.3092 12.6367C61.8492 13.4767 61.6192 14.4667 61.6192 15.6067C61.6192 16.7467 61.8492 17.7467 62.3092 18.6067C62.7892 19.4467 63.4092 20.0867 64.1692 20.5267C64.9492 20.9667 65.7692 21.1867 66.6292 21.1867C67.5092 21.1867 68.3292 20.9667 69.0892 20.5267C69.8692 20.0667 70.4892 19.4067 70.9492 18.5467C71.4292 17.6867 71.6692 16.6867 71.6692 15.5467ZM81.9513 1.68672V23.8867H78.5313V1.68672H81.9513ZM93.6114 24.1567C92.0514 24.1567 90.6414 23.8067 89.3814 23.1067C88.1214 22.3867 87.1314 21.3867 86.4114 20.1067C85.6914 18.8067 85.3314 17.3067 85.3314 15.6067C85.3314 13.9267 85.7014 12.4367 86.4414 11.1367C87.1814 9.83672 88.1914 8.83672 89.4714 8.13672C90.7514 7.43672 92.1814 7.08672 93.7614 7.08672C95.3414 7.08672 96.7714 7.43672 98.0514 8.13672C99.3314 8.83672 100.341 9.83672 101.081 11.1367C101.821 12.4367 102.191 13.9267 102.191 15.6067C102.191 17.2867 101.811 18.7767 101.051 20.0767C100.291 21.3767 99.2514 22.3867 97.9314 23.1067C96.6314 23.8067 95.1914 24.1567 93.6114 24.1567ZM93.6114 21.1867C94.4914 21.1867 95.3114 20.9767 96.0714 20.5567C96.8514 20.1367 97.4814 19.5067 97.9614 18.6667C98.4414 17.8267 98.6814 16.8067 98.6814 15.6067C98.6814 14.4067 98.4514 13.3967 97.9914 12.5767C97.5314 11.7367 96.9214 11.1067 96.1614 10.6867C95.4014 10.2667 94.5814 10.0567 93.7014 10.0567C92.8214 10.0567 92.0014 10.2667 91.2414 10.6867C90.5014 11.1067 89.9114 11.7367 89.4714 12.5767C89.0314 13.3967 88.8114 14.4067 88.8114 15.6067C88.8114 17.3867 89.2614 18.7667 90.1614 19.7467C91.0814 20.7067 92.2314 21.1867 93.6114 21.1867ZM109.562 10.1467V19.2967C109.562 19.9167 109.702 20.3667 109.982 20.6467C110.282 20.9067 110.782 21.0367 111.482 21.0367H113.582V23.8867H110.882C109.342 23.8867 108.162 23.5267 107.342 22.8067C106.522 22.0867 106.112 20.9167 106.112 19.2967V10.1467H104.162V7.35672H106.112V3.24672H109.562V7.35672H113.582V10.1467H109.562ZM120.154 1.68672V23.8867H116.734V1.68672H120.154ZM126.385 5.16672C125.765 5.16672 125.245 4.95672 124.825 4.53672C124.405 4.11672 124.195 3.59672 124.195 2.97672C124.195 2.35672 124.405 1.83672 124.825 1.41672C125.245 0.996718 125.765 0.786718 126.385 0.786718C126.985 0.786718 127.495 0.996718 127.915 1.41672C128.335 1.83672 128.545 2.35672 128.545 2.97672C128.545 3.59672 128.335 4.11672 127.915 4.53672C127.495 4.95672 126.985 5.16672 126.385 5.16672ZM128.065 7.35672V23.8867H124.645V7.35672H128.065ZM135.975 9.81672C136.555 9.01672 137.345 8.36672 138.345 7.86672C139.365 7.34672 140.495 7.08672 141.735 7.08672C143.195 7.08672 144.515 7.43672 145.695 8.13672C146.875 8.83672 147.805 9.83672 148.485 11.1367C149.165 12.4167 149.505 13.8867 149.505 15.5467C149.505 17.2067 149.165 18.6967 148.485 20.0167C147.805 21.3167 146.865 22.3367 145.665 23.0767C144.485 23.7967 143.175 24.1567 141.735 24.1567C140.455 24.1567 139.315 23.9067 138.315 23.4067C137.335 22.9067 136.555 22.2667 135.975 21.4867V23.8867H132.555V1.68672H135.975V9.81672ZM146.025 15.5467C146.025 14.4067 145.785 13.4267 145.305 12.6067C144.845 11.7667 144.225 11.1367 143.445 10.7167C142.685 10.2767 141.865 10.0567 140.985 10.0567C140.125 10.0567 139.305 10.2767 138.525 10.7167C137.765 11.1567 137.145 11.7967 136.665 12.6367C136.205 13.4767 135.975 14.4667 135.975 15.6067C135.975 16.7467 136.205 17.7467 136.665 18.6067C137.145 19.4467 137.765 20.0867 138.525 20.5267C139.305 20.9667 140.125 21.1867 140.985 21.1867C141.865 21.1867 142.685 20.9667 143.445 20.5267C144.225 20.0667 144.845 19.4067 145.305 18.5467C145.785 17.6867 146.025 16.6867 146.025 15.5467Z" fill="black"/>
</svg>
